<svg viewBox="0 0 2000 1003" id="svgContainer" xmlns="http://www.w3.org/2000/svg">
    <g id="transformGroup" transform="scale(1) translate(0 0) rotate(0)" transform-origin="458.5 -16">
        <path d="M 1675 237.668 C 1632.544 241.883, 1602.281 259.666, 1588.493 288.500 C 1582.960 300.071, 1581.582 306.770, 1581.602 322 C 1581.617 334.124, 1581.901 336.314, 1584.383 343.490 C 1593.524 369.914, 1615.314 387.686, 1658 403.530 C 1675.332 409.964, 1687.099 415.529, 1691.886 419.558 C 1698.655 425.253, 1700.826 434.502, 1697.106 441.790 C 1692.355 451.100, 1681.890 455.003, 1661.701 454.996 C 1642.778 454.989, 1621.663 450.614, 1602.720 442.775 C 1597.341 440.549, 1592.807 438.901, 1592.645 439.114 C 1591.630 440.444, 1579.157 498.556, 1579.758 499.153 C 1581.222 500.607, 1598.665 506.829, 1607 508.871 C 1623.575 512.930, 1633.549 514.213, 1652.579 514.731 C 1674.624 515.332, 1687.154 514.170, 1703.698 509.992 C 1736.808 501.630, 1760.332 481.821, 1769.598 454.500 C 1773.229 443.793, 1774.178 422.393, 1771.546 410.564 C 1767.929 394.306, 1757.572 379.066, 1742.402 367.680 C 1731.343 359.381, 1718.200 352.799, 1696.195 344.543 C 1674.054 336.235, 1666.711 332.697, 1661.344 327.750 C 1653.699 320.702, 1653.576 311.977, 1661.022 304.874 C 1666.562 299.590, 1672.446 297.836, 1686.561 297.262 C 1702.002 296.634, 1716.479 298.821, 1732 304.127 C 1738.325 306.290, 1744.426 308.306, 1745.557 308.609 C 1747.479 309.123, 1748.095 307.335, 1754.945 281.330 C 1758.977 266.023, 1762.470 252.982, 1762.707 252.349 C 1763.154 251.155, 1751.929 246.464, 1742 243.696 C 1723.087 238.424, 1693.864 235.795, 1675 237.668 M 871 503.500 L 871 767 885.500 767 L 900 767 900 503.500 L 900 240 885.500 240 L 871 240 871 503.500 M 1127.500 240.657 C 1119.956 241.132, 1092.750 243.874, 1087.750 244.663 L 1084 245.256 1084 378.128 L 1084 511 1120.500 511 L 1157 511 1157 460.500 L 1157 410 1162.750 410.031 C 1172.767 410.085, 1182.751 411.840, 1187.910 414.455 C 1197.636 419.383, 1201.402 427.218, 1209.515 459.403 C 1214.711 480.016, 1220.032 497.675, 1224.533 509.250 C 1225.165 510.873, 1227.926 511, 1262.714 511 C 1298.032 511, 1300.173 510.898, 1299.504 509.250 C 1296.854 502.715, 1294.017 493.094, 1287.489 468.500 C 1283.401 453.100, 1279.205 437.575, 1278.166 434 C 1271.595 411.402, 1260.877 394.852, 1248.179 387.695 L 1243.857 385.259 1251.679 380.998 C 1262.679 375.005, 1276.055 361.414, 1281.694 350.500 C 1288.675 336.988, 1290.926 324.404, 1289.079 309.214 C 1285.276 277.931, 1268.275 257.609, 1237.459 247.507 C 1219.881 241.745, 1210.856 240.805, 1170.500 240.531 C 1150.150 240.393, 1130.800 240.450, 1127.500 240.657 M 362.397 283.250 C 393.102 323.715, 393.773 324.510, 397.640 325.040 C 406.375 326.235, 412.377 333.039, 412.247 341.599 C 412.001 357.867, 390.600 363.632, 381.949 349.759 C 380.374 347.232, 379.979 345.134, 380.193 340.419 L 380.469 334.337 351.118 295.656 C 334.975 274.381, 321.407 256.752, 320.967 256.479 C 320.526 256.207, 319.474 258.125, 318.629 260.742 C 317.784 263.359, 308.053 293.344, 297.005 327.376 C 285.957 361.408, 277.049 389.365, 277.209 389.504 C 277.727 389.952, 381.460 422.293, 382.717 422.398 C 383.386 422.454, 405.982 406.525, 432.930 387 L 481.927 351.500 481.963 296.750 L 482 242 406.549 242 L 331.097 242 362.397 283.250 M 498 296.793 L 498 351.587 542.669 384.043 C 567.236 401.895, 588.814 417.514, 590.620 418.753 L 593.903 421.006 647.028 403.094 C 676.246 393.242, 700.368 384.965, 700.632 384.701 C 701.089 384.244, 657.529 249.195, 656.636 248.303 C 656.400 248.067, 642.279 267.331, 625.254 291.111 L 594.301 334.348 595.278 338.197 C 598.016 348.983, 586.336 360.053, 575.341 357.092 C 567.440 354.964, 563 349.084, 563 340.747 C 563 333.138, 570.493 325, 577.498 325 C 580.569 325, 581.823 323.430, 608.040 286.750 C 623.076 265.712, 636.472 247.037, 637.808 245.250 L 640.237 242 569.119 242 L 498 242 498 296.793 M 943 278.500 L 943 315 979.500 315 L 1016 315 1016 278.500 L 1016 242 979.500 242 L 943 242 943 278.500 M 1351 376.500 L 1351 511 1387.500 511 L 1424 511 1424 460 L 1424 409 1471 409 L 1518 409 1518 379.500 L 1518 350 1471 350 L 1424 350 1424 326 L 1424 302 1474 302 L 1524 302 1524 272 L 1524 242 1437.500 242 L 1351 242 1351 376.500 M 1160.250 294.723 L 1157 295.127 1157 326.563 L 1157 358 1166.750 357.969 C 1199.916 357.864, 1215.569 348.150, 1216.799 326.912 C 1217.783 309.910, 1209.119 298.714, 1192.201 295.124 C 1187.238 294.071, 1167.501 293.824, 1160.250 294.723 M 943 418 L 943 511 979.500 511 L 1016 511 1016 418 L 1016 325 979.500 325 L 943 325 943 418 M 653.168 418.360 C 624.050 428.276, 602.495 436.132, 602.027 437 C 601.582 437.825, 592.815 464.352, 582.545 495.948 C 570.107 534.213, 564.143 553.934, 564.686 555.007 C 565.134 555.892, 580.068 576.965, 597.872 601.834 L 630.245 647.051 633.372 644.682 C 635.093 643.379, 662.074 623.739, 693.330 601.037 C 724.587 578.335, 749.787 559.409, 749.330 558.979 C 748.874 558.549, 724.983 550.512, 696.241 541.119 L 643.981 524.041 640.741 526.017 C 634.473 529.838, 624.423 527.732, 620 521.672 C 616.006 516.199, 615.890 507.372, 619.742 502.077 C 622.003 498.969, 629.439 495, 633 495 C 636.940 495, 644.248 499.132, 646.492 502.629 C 647.596 504.351, 648.950 506.454, 649.500 507.305 C 650.409 508.710, 750.943 542.390, 751.768 541.566 C 751.954 541.379, 741.854 509.676, 729.323 471.113 C 712.079 418.047, 706.170 401.027, 705.020 401.110 C 704.184 401.171, 680.851 408.933, 653.168 418.360 M 271.087 407.348 C 266.892 418.787, 226.781 544.115, 227.185 544.519 C 227.480 544.813, 248.531 537.058, 273.966 527.286 L 320.210 509.518 322.570 504.863 C 328.064 494.020, 341.387 492.152, 349.464 501.091 C 354.002 506.115, 354.957 512.047, 352.223 518.229 C 348.546 526.540, 339.560 530.013, 330.592 526.588 L 326.208 524.914 279.820 542.707 C 254.307 552.493, 233.406 560.950, 233.373 561.500 C 233.341 562.050, 259.097 581.253, 290.609 604.174 L 347.903 645.848 381.126 600.237 C 399.399 575.150, 414.493 553.697, 414.670 552.563 C 414.847 551.428, 406.767 525.324, 396.716 494.554 L 378.440 438.608 335.970 425.299 C 312.612 417.979, 288.635 410.462, 282.688 408.593 L 271.876 405.196 271.087 407.348 M 477.487 425.742 C 465.398 430.059, 457.927 436.715, 452.638 447.877 C 449.740 453.993, 449.500 455.304, 449.500 465 C 449.500 474.389, 449.794 476.127, 452.277 481.430 C 457.721 493.055, 466.027 500.351, 478.091 504.105 C 492.800 508.684, 508.080 504.665, 519.185 493.296 C 538.784 473.234, 532.862 440.411, 507.381 427.867 C 501.579 425.010, 499.511 424.538, 491.602 424.265 C 484.760 424.029, 481.255 424.396, 477.487 425.742 M 1074 531 C 1072.900 532.100, 1072 534.125, 1072 535.500 C 1072 536.875, 1072.900 538.900, 1074 540 C 1077.894 543.894, 1085 541.099, 1085 535.674 C 1085 532.798, 1081.122 529, 1078.186 529 C 1076.983 529, 1075.100 529.900, 1074 531 M 1270.500 530.412 C 1265.678 532.555, 1262.825 536.369, 1262.254 541.438 C 1261.805 545.426, 1261.442 546, 1259.370 546 C 1257.228 546, 1257 546.433, 1257 550.500 C 1257 554.633, 1257.204 555, 1259.500 555 L 1262 555 1262 568.500 L 1262 582 1267.500 582 L 1273 582 1273 568.500 L 1273 555 1275.500 555 C 1277.796 555, 1278 554.633, 1278 550.500 C 1278 546.335, 1277.809 546, 1275.433 546 C 1273.239 546, 1272.962 545.673, 1273.534 543.750 C 1274.549 540.331, 1277.083 538.792, 1280.750 539.366 L 1284 539.874 1284 535.054 C 1284 530.900, 1283.689 530.150, 1281.750 529.630 C 1278.154 528.667, 1273.736 528.973, 1270.500 530.412 M 1736.223 530.557 C 1733.375 532.551, 1733.203 537.969, 1735.909 540.418 C 1737.458 541.820, 1737.650 542.732, 1736.927 545.255 C 1736.436 546.966, 1735.577 548.823, 1735.017 549.383 C 1734.458 549.942, 1734 551.240, 1734 552.267 C 1734 553.739, 1734.477 553.990, 1736.250 553.453 C 1743.723 551.190, 1748 545.585, 1748 538.053 C 1748 530.812, 1741.639 526.763, 1736.223 530.557 M 943 556 L 943 582 950 582 L 957 582 957 556 L 957 530 950 530 L 943 530 943 556 M 1382 556 L 1382 582 1389 582 L 1396 582 1396 571.500 L 1396 561 1398.545 561 C 1402.222 561, 1405.351 564.657, 1409.568 573.884 L 1413.278 582 1420.639 582 C 1424.688 582, 1428 581.807, 1428 581.571 C 1428 580.233, 1418.973 562.108, 1417.290 560.066 L 1415.284 557.632 1418.075 555.283 C 1423.740 550.517, 1424.268 541.849, 1419.257 535.893 C 1415 530.835, 1411.711 530, 1396.032 530 L 1382 530 1382 556 M 1044.203 544.250 C 1040.242 548.788, 1037.002 553.063, 1037.001 553.750 C 1037 554.438, 1038.125 555, 1039.500 555 C 1041.973 555, 1042 555.093, 1042 563.599 C 1042 573.566, 1043.508 577.688, 1048.162 580.437 C 1051.686 582.518, 1059.842 582.872, 1064.250 581.134 C 1066.632 580.195, 1067 579.496, 1067 575.916 C 1067 571.470, 1066.991 571.467, 1059.801 573.599 C 1058.864 573.876, 1057.183 573.183, 1056.051 572.051 C 1054.348 570.348, 1054 568.729, 1054 562.500 L 1054 555 1060.557 555 L 1067.115 555 1066.807 550.750 L 1066.500 546.500 1060.250 546.202 L 1054 545.905 1054 540.952 C 1054 537.559, 1053.591 536, 1052.702 536 C 1051.988 536, 1048.163 539.712, 1044.203 544.250 M 1095.142 543.910 C 1087.497 552.378, 1086.399 555, 1090.500 555 C 1092.982 555, 1093 555.063, 1093 564.050 C 1093 570.183, 1093.489 574.045, 1094.517 576.033 C 1097.271 581.358, 1104.188 583.432, 1113.250 581.648 C 1116.923 580.924, 1117 580.817, 1117 576.375 L 1117 571.841 1113.750 572.585 C 1109.329 573.598, 1106.838 573.350, 1105.855 571.800 C 1105.402 571.085, 1105.024 567.013, 1105.015 562.750 L 1105 555 1111 555 L 1117 555 1117 550.500 L 1117 546 1111 546 L 1105 546 1105 541 C 1105 537.455, 1104.605 536, 1103.642 536 C 1102.896 536, 1099.071 539.560, 1095.142 543.910 M 1169.139 544.049 C 1161.472 552.694, 1160.495 555, 1164.500 555 C 1166.982 555, 1167 555.063, 1167 564.050 C 1167 570.183, 1167.489 574.045, 1168.517 576.033 C 1171.271 581.358, 1178.188 583.432, 1187.250 581.648 C 1190.912 580.927, 1191 580.804, 1191 576.455 C 1191 571.609, 1190.959 571.578, 1186.331 572.905 C 1183.999 573.574, 1182.629 573.428, 1181.087 572.348 C 1179.269 571.075, 1179 569.864, 1179 562.943 L 1179 555 1185 555 L 1191 555 1191 550.500 L 1191 546 1185 546 L 1179 546 1179 541 C 1179 537.449, 1178.606 536, 1177.639 536 C 1176.891 536, 1173.066 539.622, 1169.139 544.049 M 1599.500 544.158 C 1593.987 550.535, 1592.436 551.833, 1592.198 550.265 C 1591.618 546.433, 1583.383 544.639, 1579.580 547.516 C 1578.524 548.315, 1576.840 550.213, 1575.837 551.734 L 1574.013 554.500 1574.007 550.200 L 1574 545.900 1568.250 546.200 L 1562.500 546.500 1562.227 564.250 L 1561.954 582 1567.977 582 L 1574 582 1574 574.468 C 1574 566.403, 1575.454 561.631, 1578.827 558.627 C 1580.864 556.812, 1582.156 556.795, 1587.651 558.510 C 1589.479 559.081, 1589.913 558.681, 1590.551 555.841 C 1590.963 554.003, 1591.495 553.063, 1591.733 553.750 C 1591.972 554.438, 1593.254 555, 1594.583 555 C 1596.916 555, 1597 555.252, 1597.006 562.250 C 1597.009 566.237, 1597.458 571.108, 1598.004 573.074 C 1600.065 580.492, 1607.504 583.954, 1616.574 581.716 C 1621.455 580.511, 1621.503 580.460, 1621.812 576.157 L 1622.124 571.814 1618.812 572.572 C 1610.826 574.399, 1609.614 573.193, 1609.150 562.955 L 1608.788 555 1615.394 555 L 1622 555 1622 550.500 L 1622 546 1615.500 546 L 1609 546 1609 541 C 1609 537.651, 1608.587 536.010, 1607.750 536.030 C 1607.063 536.046, 1603.350 539.704, 1599.500 544.158 M 1396 545.500 L 1396 551 1400.309 551 C 1405.664 551, 1408.250 549.209, 1408.250 545.500 C 1408.250 541.791, 1405.664 540, 1400.309 540 L 1396 540 1396 545.500 M 966 564 L 966 582 972 582 L 978 582 978 570.155 C 978 560.126, 978.268 558.074, 979.750 556.773 C 982.899 554.008, 985.724 553.724, 987.949 555.949 C 989.789 557.789, 990 559.234, 990 570 L 990 582 996 582 L 1002 582 1002 569.468 C 1002 551.721, 999.651 547.153, 990.052 546.231 C 986.204 545.861, 984.284 546.225, 981.541 547.843 C 978.062 549.896, 978 549.898, 978 547.966 C 978 546.230, 977.299 546, 972 546 L 966 546 966 564 M 1014.198 547.673 C 1010.719 549.388, 1008 553.479, 1008 557 C 1008 561.621, 1010.753 564.622, 1017.943 567.837 C 1021.825 569.572, 1025 571.620, 1025 572.388 C 1025 574.781, 1020.316 575.131, 1014.512 573.171 L 1009 571.310 1009 575.680 C 1009 579.523, 1009.331 580.177, 1011.750 581.109 C 1013.263 581.692, 1017.475 582.193, 1021.111 582.223 C 1031.277 582.306, 1036 578.615, 1036 570.588 C 1036 565.835, 1032.989 562.645, 1025.495 559.460 C 1021.891 557.928, 1019.102 556.186, 1019.298 555.588 C 1019.871 553.841, 1026.482 553.757, 1030.524 555.445 C 1032.570 556.300, 1034.440 557, 1034.680 557 C 1034.919 557, 1034.977 555.098, 1034.807 552.773 C 1034.565 549.433, 1033.976 548.283, 1032 547.288 C 1028.444 545.498, 1018.160 545.720, 1014.198 547.673 M 1072.667 546.667 C 1072.300 547.033, 1072 555.133, 1072 564.667 L 1072 582 1078 582 L 1084 582 1084 564 L 1084 546 1078.667 546 C 1075.733 546, 1073.033 546.300, 1072.667 546.667 M 1123 559.550 C 1123 574.349, 1123.796 577.326, 1128.593 580.469 C 1132.582 583.082, 1140.252 582.929, 1143.996 580.161 C 1146.952 577.976, 1147 577.973, 1147 579.970 C 1147 581.764, 1147.640 582, 1152.500 582 L 1158 582 1158 564 L 1158 546 1152.500 546 L 1147 546 1147 557.545 C 1147 568.470, 1146.868 569.223, 1144.545 571.545 C 1141.586 574.505, 1137.475 574.756, 1136.035 572.066 C 1135.466 571.002, 1135 564.702, 1135 558.066 L 1135 546 1129 546 L 1123 546 1123 559.550 M 1204.748 548.069 C 1200.361 550.385, 1196.481 555.947, 1195.563 561.235 C 1194.166 569.287, 1199.469 578.667, 1206.800 581.112 C 1212.474 583.004, 1221.907 582.577, 1227.318 580.183 C 1231.806 578.198, 1232 577.941, 1232 573.973 C 1232 571.696, 1231.662 570.006, 1231.250 570.218 C 1223.425 574.228, 1220.353 575.177, 1216.754 574.694 C 1212.394 574.109, 1208 570.662, 1208 567.826 C 1208 566.160, 1209.049 566, 1220 566 L 1232 566 1232 562.712 C 1232 557.500, 1228.074 550.829, 1223.500 548.271 C 1218.311 545.368, 1210.033 545.279, 1204.748 548.069 M 1291.384 547.913 C 1281.838 552.248, 1278.047 564.285, 1283.368 573.366 C 1289.549 583.912, 1307.835 585.646, 1315.908 576.452 C 1323.952 567.291, 1321.580 553.580, 1311.030 548.250 C 1305.429 545.421, 1297.184 545.279, 1291.384 547.913 M 1327 564 L 1327 582 1333 582 L 1339 582 1339 573.960 C 1339 561.022, 1343.631 554.688, 1350.726 557.921 C 1353.751 559.299, 1354.337 558.818, 1356.016 553.570 C 1357.185 549.918, 1357.115 549.512, 1355.026 547.820 C 1351.240 544.754, 1346.261 545.443, 1342.368 549.571 L 1339 553.142 1339 549.571 L 1339 546 1333 546 L 1327 546 1327 564 M 1440.071 547.752 C 1427.422 554.202, 1426.638 572.601, 1438.711 579.676 C 1442.515 581.906, 1444.385 582.317, 1450.546 582.277 C 1455.576 582.245, 1459.057 581.647, 1461.682 580.365 C 1465.082 578.704, 1465.533 578.047, 1465.802 574.360 L 1466.104 570.219 1461.383 572.610 C 1456.175 575.246, 1452.910 575.562, 1448.119 573.892 C 1445.483 572.973, 1442 568.793, 1442 566.550 C 1442 566.247, 1447.625 566, 1454.500 566 C 1466.955 566, 1467 565.992, 1467 563.649 C 1467 557.177, 1462.218 549.917, 1456.282 547.377 C 1451.844 545.478, 1444.182 545.655, 1440.071 547.752 M 1474 572 L 1474 598 1480 598 L 1486 598 1486 589.433 C 1486 580.997, 1486.035 580.877, 1488.250 581.601 C 1492.343 582.938, 1499.810 582.295, 1503.205 580.312 C 1514.794 573.544, 1514.429 553.228, 1502.619 547.623 C 1498.641 545.736, 1491.804 545.500, 1488.732 547.143 C 1487.129 548.001, 1486.500 548.001, 1486.214 547.143 C 1485.986 546.457, 1483.467 546, 1479.917 546 L 1474 546 1474 572 M 1526.168 548.146 C 1518.342 552.020, 1514.191 561.989, 1516.939 570.315 C 1518.658 575.522, 1524.734 580.563, 1530.884 581.882 C 1544.145 584.726, 1556.048 576.377, 1555.978 564.282 C 1555.953 559.948, 1553.182 553.299, 1550.355 550.788 C 1544.644 545.717, 1533.528 544.503, 1526.168 548.146 M 1636.500 547.417 C 1623.248 553.333, 1622.289 572.932, 1634.911 579.894 C 1640.693 583.083, 1650.457 583.218, 1657.273 580.203 C 1661.810 578.196, 1662 577.947, 1662 573.975 L 1662 569.837 1658.750 571.834 C 1654.294 574.574, 1648.834 575.430, 1644.645 574.048 C 1640.806 572.781, 1639.589 571.622, 1638.555 568.250 L 1637.865 566 1650.433 566 C 1664.441 566, 1664.032 566.256, 1661.956 558.781 C 1660.632 554.014, 1656.491 549.103, 1652.329 547.364 C 1648.211 545.643, 1640.415 545.670, 1636.500 547.417 M 1670 563.950 L 1670 582 1676 582 L 1682 582 1682 573.368 C 1682 566.367, 1682.394 564.099, 1684.083 561.366 C 1686.453 557.530, 1690.010 556.228, 1693.621 557.873 C 1694.981 558.493, 1696.256 559, 1696.453 559 C 1696.650 559, 1697.544 556.862, 1698.438 554.250 C 1700.023 549.622, 1700.010 549.455, 1697.922 547.750 C 1694.360 544.842, 1689.311 545.489, 1685.452 549.348 L 1682.104 552.696 1681.802 549.598 C 1681.507 546.569, 1681.373 546.493, 1675.750 546.200 L 1670 545.900 1670 563.950 M 1708.500 546.954 C 1704.539 548.592, 1701.545 552.907, 1701.545 556.976 C 1701.545 562, 1703.884 564.563, 1711.750 568.161 C 1715.188 569.733, 1718 571.642, 1718 572.402 C 1718 574.605, 1713.650 575.101, 1708.371 573.499 C 1701.835 571.517, 1702 571.451, 1702 576.025 C 1702 579.492, 1702.381 580.196, 1704.750 581.109 C 1709.235 582.836, 1720.064 582.585, 1723.720 580.668 C 1727.691 578.586, 1729 576.261, 1729 571.288 C 1729 565.952, 1726.829 563.363, 1719.260 559.678 C 1715.671 557.930, 1712.682 556.050, 1712.617 555.500 C 1712.421 553.828, 1719.567 553.792, 1723.524 555.445 C 1725.570 556.300, 1727.414 557, 1727.622 557 C 1727.830 557, 1728 555.019, 1728 552.598 C 1728 548.559, 1727.740 548.105, 1724.851 547.098 C 1721.210 545.829, 1711.429 545.743, 1708.500 546.954 M 1210.455 555.455 C 1206.618 559.291, 1207.330 560, 1215.026 560 L 1222.051 560 1220.566 557.127 C 1219.289 554.659, 1216.629 553.064, 1213.705 553.014 C 1213.267 553.006, 1211.805 554.105, 1210.455 555.455 M 1296.550 555.359 C 1294.375 557.534, 1294 558.804, 1294 564 C 1294 569.134, 1294.386 570.477, 1296.455 572.545 C 1299.404 575.495, 1301.969 575.656, 1305.139 573.088 C 1307.216 571.406, 1307.500 570.329, 1307.500 564.124 C 1307.500 556.444, 1306.529 554.629, 1301.800 553.470 C 1299.700 552.955, 1298.535 553.374, 1296.550 555.359 M 1446.500 554.195 C 1444.169 555.517, 1443.037 556.997, 1443.015 558.750 C 1443.005 559.623, 1444.958 560, 1449.500 560 C 1456.838 560, 1457.903 558.642, 1453.365 555.073 C 1450.378 552.723, 1449.332 552.589, 1446.500 554.195 M 1533.315 554.016 C 1530.167 555.271, 1529 558.101, 1529 564.480 C 1529 569.104, 1529.432 570.523, 1531.455 572.545 C 1532.805 573.895, 1534.850 575, 1536 575 C 1537.150 575, 1539.195 573.895, 1540.545 572.545 C 1542.600 570.491, 1543 569.124, 1543 564.156 C 1543 555.877, 1539.042 551.733, 1533.315 554.016 M 1642.104 554.265 C 1640.787 554.944, 1639.339 556.513, 1638.887 557.750 C 1638.084 559.947, 1638.229 560, 1645.032 560 C 1652.668 560, 1653.377 559.286, 1649.545 555.455 C 1646.781 552.690, 1645.542 552.492, 1642.104 554.265 M 1488.750 555.172 C 1486.050 556.148, 1486 556.319, 1486 564.476 C 1486 573.495, 1486.320 574, 1492.043 574 C 1497.513 574, 1500.834 567.603, 1498.935 560.725 C 1497.450 555.348, 1493.787 553.351, 1488.750 555.172 M 424.150 569.250 C 404.345 595.809, 362.674 653.796, 362.597 654.904 C 362.507 656.212, 479.276 742, 481.147 742 C 481.616 742, 482 718.542, 482 689.871 L 482 637.742 478.554 633.928 C 470.686 625.219, 472.346 612.925, 482.061 607.969 C 490.025 603.906, 498.557 606.250, 503.726 613.922 C 507.786 619.947, 506.117 630.403, 500.373 634.921 L 498 636.788 498 689.394 C 498 718.327, 498.337 741.989, 498.750 741.976 C 500.060 741.934, 615.642 657.545, 615.821 656.500 C 615.915 655.950, 601.291 634.913, 583.321 609.750 L 550.650 564 489.358 564 L 428.065 564 424.150 569.250 M 943 646 L 943 672 950 672 L 957 672 957 661.500 L 957 651 968 651 L 979 651 979 646 L 979 641 968 641 L 957 641 957 636 L 957 631 968 631 L 979 631 979 625.500 L 979 620 961 620 L 943 620 943 646 M 1127 628.861 L 1127 637.723 1122.750 636.753 C 1116.997 635.440, 1110.529 637.271, 1106.426 641.374 C 1100.711 647.089, 1099.871 659.332, 1104.745 665.861 C 1108.515 670.910, 1111.740 672.511, 1117.823 672.353 C 1120.945 672.272, 1126.987 672.181, 1131.250 672.150 L 1139 672.095 1139 646.047 L 1139 620 1133 620 L 1127 620 1127 628.861 M 1391 628.861 L 1391 637.723 1386.750 636.753 C 1378.913 634.964, 1370.839 638.604, 1367.627 645.374 C 1365.119 650.660, 1365.443 660.886, 1368.250 665.010 C 1372.243 670.877, 1375.391 672.519, 1382.322 672.347 C 1385.720 672.263, 1391.763 672.181, 1395.750 672.165 L 1403 672.135 1403 646.068 L 1403 620 1397 620 L 1391 620 1391 628.861 M 1439.059 622.181 C 1432.912 625.390, 1430.500 629.004, 1430.500 635 C 1430.500 642.949, 1435.150 647.590, 1448.057 652.522 C 1455.606 655.406, 1457.727 657.623, 1455.653 660.459 C 1454.721 661.735, 1452.998 662.184, 1449.156 662.154 C 1444.479 662.118, 1441.083 660.960, 1431.750 656.215 C 1431.338 656.005, 1431 658.596, 1431 661.973 L 1431 668.112 1435.750 670.253 C 1442.365 673.235, 1455.778 673.364, 1461.487 670.500 C 1469.181 666.640, 1472.078 658.181, 1468.377 650.381 C 1466.338 646.086, 1462.909 643.629, 1454.570 640.490 C 1445.782 637.182, 1443.880 635.898, 1444.218 633.500 C 1444.712 629.996, 1450.567 629.352, 1458.606 631.918 C 1462.398 633.128, 1466.063 634.354, 1466.750 634.642 C 1467.664 635.026, 1468 633.653, 1468 629.532 C 1468 623.975, 1467.949 623.876, 1464.250 622.285 C 1462.175 621.392, 1456.703 620.490, 1452 620.266 C 1444.579 619.912, 1442.936 620.156, 1439.059 622.181 M 1525.062 621.827 C 1521.060 623.973, 1518 629.133, 1518 633.734 C 1518 636.551, 1517.656 637, 1515.500 637 C 1513.250 637, 1513 637.400, 1513 641 C 1513 644.600, 1513.250 645, 1515.500 645 L 1518 645 1518 658.500 L 1518 672 1524 672 L 1530 672 1530 658.500 L 1530 645 1532.500 645 C 1534.750 645, 1535 644.600, 1535 641 C 1535 637.400, 1534.750 637, 1532.500 637 C 1530.558 637, 1530 636.487, 1530 634.700 C 1530 631.403, 1531.851 630, 1536.200 630 L 1540 630 1540 625 L 1540 620 1534.234 620 C 1530.560 620, 1527.233 620.663, 1525.062 621.827 M 1583.613 634.534 C 1579.426 639.227, 1576 643.502, 1576 644.034 C 1576 644.565, 1577.065 645, 1578.366 645 C 1580.664 645, 1580.747 645.289, 1581.211 654.939 C 1581.754 666.219, 1583.119 669.316, 1588.546 671.584 C 1592.601 673.278, 1598.526 673.410, 1602.851 671.902 C 1605.755 670.890, 1606 670.454, 1606 666.295 C 1606 662.378, 1605.770 661.886, 1604.250 662.545 C 1601.309 663.822, 1596.579 664.115, 1595.075 663.114 C 1594.093 662.461, 1593.510 659.497, 1593.200 653.583 L 1592.749 645 1599.375 645 L 1606 645 1606 641 L 1606 637 1599.500 637 L 1593 637 1593 631.500 C 1593 628.475, 1592.601 626, 1592.113 626 C 1591.625 626, 1587.800 629.840, 1583.613 634.534 M 1003.867 637.511 C 1002.418 638.298, 1000.288 640.417, 999.134 642.221 L 997.034 645.500 997.017 641.250 L 997 637 991 637 L 985 637 985 654.500 L 985 672 991 672 L 997 672 997 664.816 C 997 652.284, 1001.896 645.655, 1008.959 648.625 C 1010.798 649.398, 1012.394 649.911, 1012.506 649.765 C 1012.619 649.619, 1013.430 647.343, 1014.309 644.707 L 1015.908 639.914 1012.704 637.961 C 1008.931 635.661, 1007.414 635.583, 1003.867 637.511 M 1029.500 637.165 C 1021.619 640.108, 1017.064 646.539, 1017.022 654.782 C 1016.980 662.948, 1021.694 669.424, 1029.574 672.024 C 1034.128 673.527, 1044.323 672.853, 1049.250 670.723 C 1052.699 669.232, 1053 668.777, 1053 665.051 C 1053 662.823, 1052.786 661, 1052.524 661 C 1052.262 661, 1050.575 661.898, 1048.774 662.996 C 1042.066 667.086, 1031.234 664.828, 1029.717 659.024 C 1029.206 657.071, 1029.630 657, 1041.730 657 L 1054.272 657 1053.637 652.370 C 1052.385 643.238, 1046.287 637.300, 1037.319 636.483 C 1034.669 636.242, 1031.150 636.549, 1029.500 637.165 M 1072.128 637.150 C 1061.368 640.246, 1056.134 652.094, 1060.896 662.579 C 1064.314 670.103, 1071.142 673.509, 1081.349 672.782 C 1084.732 672.541, 1089.188 671.615, 1091.250 670.723 C 1094.699 669.232, 1095 668.777, 1095 665.051 C 1095 662.823, 1094.786 661, 1094.524 661 C 1094.262 661, 1092.575 661.898, 1090.774 662.996 C 1084.066 667.086, 1073.234 664.828, 1071.717 659.024 C 1071.206 657.072, 1071.630 657, 1083.594 657 L 1096 657 1095.978 653.750 C 1095.951 649.795, 1093.029 643.164, 1090.207 640.655 C 1085.743 636.685, 1078.575 635.296, 1072.128 637.150 M 1161.500 636.442 C 1160.950 636.653, 1159.271 637.096, 1157.768 637.427 C 1154.103 638.235, 1148.019 643.710, 1146.351 647.702 C 1143.688 654.076, 1145.734 663.851, 1150.645 668.212 C 1158.032 674.771, 1172.126 674.519, 1179.359 667.698 C 1188.153 659.404, 1185.876 644.124, 1175.008 638.504 C 1172.289 637.098, 1163.351 635.734, 1161.500 636.442 M 1209.299 637.106 C 1207.539 637.615, 1205.825 638.475, 1205.490 639.016 C 1204.564 640.514, 1203 640.190, 1203 638.500 C 1203 637.333, 1201.667 637, 1197 637 L 1191 637 1191 654.500 L 1191 672 1197 672 L 1203 672 1203 660.216 L 1203 648.431 1205.904 646.716 C 1209.724 644.459, 1212.548 644.548, 1215 647 C 1216.768 648.768, 1217 650.333, 1217 660.500 L 1217 672 1223 672 L 1229 672 1229 660.573 C 1229 649.418, 1229.063 649.096, 1231.635 647.073 C 1234.710 644.654, 1237.831 644.425, 1240.558 646.418 C 1242.253 647.658, 1242.542 649.358, 1242.854 659.918 L 1243.211 672 1249.105 672 L 1255 672 1254.956 662.250 C 1254.881 645.272, 1252.741 639.648, 1245.425 637.201 C 1240.200 635.453, 1234.594 636.540, 1230.558 640.083 L 1227.277 642.964 1225.389 640.844 C 1221.587 636.577, 1215.788 635.230, 1209.299 637.106 M 1293.500 636.603 C 1292.400 636.871, 1289.588 637.781, 1287.250 638.627 C 1283.035 640.153, 1283 640.206, 1283 645.083 C 1283 647.787, 1283.243 650, 1283.540 650 C 1283.838 650, 1285.340 649.069, 1286.879 647.931 C 1290.717 645.093, 1296.269 643.951, 1299.178 645.401 C 1303.129 647.371, 1301.874 649.188, 1294.949 651.524 C 1286.432 654.397, 1284.331 655.784, 1282.435 659.779 C 1281.161 662.462, 1281.084 663.724, 1282.018 666.555 C 1283.985 672.516, 1291.151 674.635, 1298.688 671.486 C 1301.924 670.134, 1302.490 670.134, 1303.984 671.486 C 1306.154 673.449, 1310.931 673.412, 1315.980 671.391 C 1319.559 669.959, 1320 669.413, 1320 666.416 C 1320 663.209, 1319.858 663.078, 1317 663.650 L 1314 664.250 1314 654.672 C 1314 643.878, 1313.112 641.088, 1308.883 638.590 C 1305.908 636.832, 1297.191 635.707, 1293.500 636.603 M 1341.021 637.116 C 1339.657 637.660, 1337.744 638.826, 1336.771 639.708 C 1335.129 641.194, 1335 641.154, 1335 639.155 C 1335 637.188, 1334.477 637, 1329 637 L 1323 637 1323 654.500 L 1323 672 1329 672 L 1335 672 1335 660.573 C 1335 649.418, 1335.063 649.096, 1337.635 647.073 C 1340.941 644.472, 1344.614 644.411, 1345.965 646.934 C 1346.534 647.998, 1347 654.073, 1347 660.434 L 1347 672 1353 672 L 1359 672 1358.998 659.250 C 1358.997 644.590, 1357.785 640.873, 1352.016 637.835 C 1348.190 635.820, 1344.821 635.600, 1341.021 637.116 M 1483.806 637.341 C 1477.215 639.197, 1476 640.486, 1476 645.622 C 1476 648.030, 1476.243 650, 1476.540 650 C 1476.838 650, 1478.340 649.069, 1479.879 647.931 C 1483.712 645.097, 1489.270 643.951, 1492.169 645.397 C 1496.603 647.608, 1495.481 649.387, 1488.368 651.424 C 1484.471 652.540, 1480.290 654.562, 1478.342 656.273 C 1475.524 658.747, 1475 659.883, 1475 663.515 C 1475 671.470, 1482.805 675.198, 1491.688 671.486 C 1494.975 670.112, 1495.480 670.125, 1497.131 671.619 C 1499.105 673.405, 1505.074 673.186, 1510.250 671.138 C 1512.519 670.240, 1513 669.437, 1513 666.550 C 1513 663.194, 1512.876 663.075, 1510 663.650 L 1507 664.250 1507 654.690 C 1507 649.432, 1506.569 643.997, 1506.043 642.613 C 1504.059 637.394, 1492.960 634.763, 1483.806 637.341 M 1550.764 636.996 C 1539.357 640.430, 1534.041 651.889, 1538.896 662.579 C 1542.314 670.103, 1549.142 673.509, 1559.349 672.782 C 1562.732 672.541, 1567.188 671.615, 1569.250 670.723 C 1572.699 669.232, 1573 668.777, 1573 665.051 C 1573 662.823, 1572.786 661, 1572.524 661 C 1572.262 661, 1570.575 661.898, 1568.774 662.996 C 1562.066 667.086, 1551.234 664.828, 1549.717 659.024 C 1549.206 657.072, 1549.630 657, 1561.594 657 L 1574 657 1573.978 653.750 C 1573.951 649.795, 1571.029 643.164, 1568.207 640.655 C 1563.917 636.840, 1556.470 635.278, 1550.764 636.996 M 1607 637.375 C 1607 637.581, 1609.925 643.920, 1613.500 651.462 C 1617.075 659.004, 1620 665.644, 1620 666.219 C 1620 666.794, 1617.975 671.742, 1615.500 677.214 C 1613.025 682.687, 1611 687.599, 1611 688.130 C 1611 688.677, 1613.613 688.966, 1617.025 688.798 L 1623.051 688.500 1634.525 663.170 C 1640.836 649.239, 1646 637.651, 1646 637.420 C 1646 637.189, 1643.271 637, 1639.935 637 L 1633.869 637 1630.145 645.067 L 1626.420 653.134 1623.089 645.067 L 1619.758 637 1613.379 637 C 1609.871 637, 1607 637.169, 1607 637.375 M 1031.655 645.829 C 1028.639 649.161, 1029.613 650, 1036.500 650 C 1043.407 650, 1044.250 649.250, 1041 646 C 1038.501 643.501, 1033.839 643.416, 1031.655 645.829 M 1074.223 645.557 C 1069.983 648.526, 1071.401 650, 1078.500 650 C 1085.407 650, 1086.250 649.250, 1083 646 C 1080.602 643.602, 1077.254 643.433, 1074.223 645.557 M 1161.400 644.765 C 1157.521 647.355, 1156.582 659.582, 1160 663 C 1161.989 664.989, 1166.500 665.637, 1168.600 664.235 C 1172.491 661.637, 1173.299 650.921, 1169.927 646.635 C 1167.881 644.034, 1163.827 643.145, 1161.400 644.765 M 1552 646 C 1548.750 649.250, 1549.593 650, 1556.500 650 C 1560.167 650, 1563 649.564, 1563 649 C 1563 647.088, 1558.985 644, 1556.500 644 C 1555.125 644, 1553.100 644.900, 1552 646 M 1116 647 C 1114.485 648.515, 1114 650.333, 1114 654.500 C 1114 660.924, 1116.240 664, 1120.918 664 C 1126.682 664, 1127 663.503, 1127 654.500 C 1127 647.867, 1126.684 646.093, 1125.418 645.607 C 1122.278 644.402, 1117.960 645.040, 1116 647 M 1380.088 647.135 C 1378.514 648.825, 1378 650.684, 1378 654.689 C 1378 661.091, 1380.275 664.008, 1385.250 663.985 C 1390.700 663.959, 1391.117 663.202, 1390.793 653.914 L 1390.500 645.500 1386.338 645.197 C 1383.070 644.959, 1381.729 645.375, 1380.088 647.135 M 1298.329 657.458 C 1294.142 659.279, 1292.465 662.322, 1294.516 664.374 C 1295.710 665.567, 1296.658 665.667, 1299.014 664.845 C 1301.641 663.930, 1302 663.335, 1302 659.902 C 1302 657.756, 1301.888 656.018, 1301.750 656.039 C 1301.612 656.061, 1300.073 656.699, 1298.329 657.458 M 1491 657.752 C 1484.944 660.777, 1485.948 666.960, 1492.144 664.800 C 1494.627 663.934, 1495 663.295, 1495 659.902 C 1495 657.756, 1494.888 656.001, 1494.750 656.002 C 1494.612 656.002, 1492.925 656.790, 1491 657.752 M 945 731 L 945 767 1164 767 L 1383 767 1383 731 L 1383 695 1164 695 L 945 695 945 731 M 972 733.500 L 972 753 977 753 L 982 753 982 733.500 L 982 714 977 714 L 972 714 972 733.500 M 1011.750 714.633 C 1010.163 715.099, 1010 716.910, 1010 734.073 L 1010 753 1014.500 753 L 1019 753 1019 745.500 C 1019 738.587, 1019.162 738, 1021.066 738 C 1024.375 738, 1026.719 739.737, 1027.440 742.724 C 1030.089 753.690, 1029.571 753, 1035.146 753 C 1038.785 753, 1040.081 752.648, 1039.743 751.750 C 1039.483 751.063, 1038.518 747.895, 1037.596 744.711 C 1036.675 741.526, 1035.023 738.023, 1033.926 736.926 C 1031.931 734.931, 1031.932 734.928, 1034.856 732.468 C 1038.446 729.447, 1039.445 725.879, 1037.961 721.382 C 1036.338 716.464, 1032.294 714.690, 1022 714.378 C 1017.325 714.236, 1012.712 714.351, 1011.750 714.633 M 1065 733.500 L 1065 753 1070 753 L 1075 753 1075 745.500 L 1075 738 1082 738 L 1089 738 1089 734 L 1089 730 1082 730 L 1075 730 1075 726 L 1075 722 1082.500 722 L 1090 722 1090 718 L 1090 714 1077.500 714 L 1065 714 1065 733.500 M 1122.500 715.502 C 1118.047 717.874, 1116.047 720.980, 1116.022 725.563 C 1115.995 730.598, 1118.975 733.730, 1127.250 737.365 C 1131.593 739.272, 1133 740.398, 1133 741.966 C 1133 745.253, 1128.891 746.580, 1122.694 745.295 C 1119.837 744.702, 1117.368 744.338, 1117.207 744.485 C 1117.046 744.632, 1116.660 746.318, 1116.350 748.231 C 1115.673 752.405, 1116.934 752.967, 1127 752.983 C 1134.588 752.994, 1138.988 750.858, 1141.540 745.923 C 1143.575 741.988, 1142.820 737.119, 1139.725 734.211 C 1138.490 733.051, 1134.938 730.978, 1131.832 729.604 C 1125.660 726.875, 1124.696 725.956, 1125.580 723.651 C 1126.386 721.551, 1131.150 720.671, 1135.388 721.841 C 1138.819 722.789, 1138.935 722.726, 1140.053 719.339 C 1140.683 717.429, 1140.899 715.566, 1140.532 715.199 C 1140.166 714.832, 1136.633 714.391, 1132.683 714.218 C 1127.527 713.993, 1124.653 714.355, 1122.500 715.502 M 1213.223 716.119 C 1199.935 722.696, 1200.026 744.784, 1213.369 751.693 C 1217.348 753.754, 1226.695 753.726, 1230.725 751.642 C 1241.501 746.070, 1244.381 729.548, 1236.258 719.895 C 1231.106 713.771, 1221.234 712.153, 1213.223 716.119 M 1268.750 714.633 C 1267.163 715.099, 1267 716.910, 1267 734.073 L 1267 753 1271.500 753 L 1276 753 1276 745.500 L 1276 738 1278.977 738 C 1282.578 738, 1284.283 740.371, 1285.987 747.750 L 1287.199 753 1292.119 753 C 1296.980 753, 1297.030 752.968, 1296.372 750.250 C 1294.528 742.643, 1292.924 738.548, 1290.976 736.475 L 1288.829 734.189 1290.925 733.524 C 1293.273 732.778, 1296 728.199, 1296 725 C 1296 721.636, 1293.379 717.499, 1290.325 716.041 C 1287.484 714.686, 1272.014 713.676, 1268.750 714.633 M 1333.530 715.534 C 1325.374 718.644, 1320.675 725.397, 1320.680 734 C 1320.684 741.032, 1323.656 747.001, 1328.719 750.149 C 1331.996 752.187, 1333.766 752.500, 1342 752.500 C 1347.225 752.500, 1352.287 752.177, 1353.250 751.781 C 1354.760 751.161, 1355 749.621, 1355 740.531 L 1355 730 1348 730 L 1341 730 1341 734 C 1341 737.600, 1341.250 738, 1343.500 738 C 1345.763 738, 1346 738.391, 1346 742.130 L 1346 746.260 1341.282 745.728 C 1334.559 744.971, 1331 740.883, 1331 733.918 C 1331 731.141, 1331.463 728.003, 1332.030 726.945 C 1333.907 723.436, 1338.748 721.751, 1345.680 722.192 L 1352.047 722.598 1352.885 719.549 C 1353.345 717.872, 1353.359 716.096, 1352.914 715.603 C 1351.432 713.958, 1337.789 713.909, 1333.530 715.534 M 1019 726 L 1019 731 1022.800 731 C 1027.256 731, 1029 729.593, 1029 726 C 1029 722.407, 1027.256 721, 1022.800 721 L 1019 721 1019 726 M 1217.226 723.004 C 1214.371 725.664, 1212.796 731.873, 1213.639 737.144 C 1215.390 748.094, 1227.233 749.277, 1230.058 738.784 C 1233.256 726.908, 1224.540 716.190, 1217.226 723.004 M 1276 726 L 1276 731 1279.977 731 C 1283.116 731, 1284.299 730.473, 1285.592 728.500 C 1287.109 726.184, 1287.109 725.816, 1285.592 723.500 C 1284.299 721.527, 1283.116 721, 1279.977 721 L 1276 721 1276 726 M 1170 744 C 1167.679 746.321, 1167.449 748.864, 1169.328 751.434 C 1170.856 753.523, 1175.293 753.832, 1177.497 752.003 C 1179.778 750.109, 1179.375 745.376, 1176.777 743.557 C 1173.840 741.499, 1172.407 741.593, 1170 744" stroke="none" fill="#fffcfc" fill-rule="evenodd">
        </path>
        <path d="" stroke="none" fill="#fcfcfc" fill-rule="evenodd"></path>
    </g>
</svg>