<svg viewBox="0 0 192 192" xmlns="http://www.w3.org/2000/svg"><g transform="scale(1) translate(0 0) rotate(0)"><path d="M 51 29.586 C 51 31.295, 68.671 53.212, 70.912 54.282 C 75.942 56.685, 73.889 62.942, 68.513 61.593 C 66.740 61.148, 66 60.284, 66 58.662 C 66 56.193, 50.242 34.102, 48.436 34.038 C 46.941 33.985, 35.402 70.818, 36.571 71.909 C 37.735 72.995, 63.204 81, 65.495 81 C 68.077 81, 93.998 61.861, 94.574 59.529 C 94.849 58.413, 94.946 51.200, 94.788 43.500 L 94.500 29.500 72.750 29.230 C 60.788 29.082, 51 29.242, 51 29.586 M 98.441 30.294 C 98.168 31.006, 98.069 38.285, 98.222 46.471 L 98.500 61.355 108.500 68.671 C 114 72.694, 120.164 77.160, 122.198 78.593 L 125.897 81.200 141.485 76.005 C 156.035 71.156, 157.029 70.666, 156.397 68.655 C 150.373 49.477, 144.667 32.342, 144.108 31.750 C 143.030 30.608, 126 54.769, 126 57.441 C 126 60.588, 123.610 62.370, 120.452 61.577 C 118.260 61.027, 117.924 60.454, 118.189 57.716 C 118.413 55.400, 119.060 54.415, 120.500 54.198 C 122.308 53.925, 137.015 34.732, 138.618 30.552 C 139.145 29.181, 136.865 29, 119.076 29 C 103.523 29, 98.824 29.295, 98.441 30.294 M 141.249 79.789 L 127.997 84.447 122.370 101.473 L 116.743 118.500 126.122 131.716 C 131.280 138.985, 135.950 144.918, 136.500 144.899 C 137.953 144.851, 169.279 121.662, 169.734 120.298 C 170.256 118.731, 142.438 109.683, 139.075 110.326 C 135.549 111, 133 109.395, 133 106.500 C 133 103.374, 136.205 101.504, 139 103 C 140.100 103.589, 141 104.491, 141 105.006 C 141 106.052, 169.845 115.489, 170.633 114.700 C 170.909 114.425, 168.320 105.379, 164.880 94.600 C 159.384 77.379, 158.375 75.008, 156.562 75.066 C 155.428 75.102, 148.537 77.227, 141.249 79.789 M 33.686 76.750 C 33.448 77.162, 30.712 85.476, 27.605 95.224 C 24.499 104.972, 21.694 113.635, 21.372 114.474 C 21.050 115.313, 21.308 116, 21.947 116 C 24.853 116, 47.735 106.354, 49.702 104.300 C 52.215 101.676, 52.430 101.625, 55.066 103.035 C 59.344 105.325, 56.142 111.634, 51.339 110.378 C 49.196 109.818, 23.762 119.107, 23.355 120.598 C 23.219 121.094, 30.540 126.843, 39.623 133.374 C 55.141 144.532, 56.220 145.136, 57.508 143.374 C 58.262 142.343, 62.698 136.213, 67.367 129.750 L 75.856 118 70.453 101.858 C 67.481 92.980, 64.908 85.575, 64.735 85.402 C 64.302 84.968, 35.820 76, 34.877 76 C 34.460 76, 33.924 76.338, 33.686 76.750 M 91.030 82.279 C 87.838 83.895, 84 89.609, 84 92.747 C 84 106.570, 104.251 109.617, 107.915 96.345 C 110.638 86.485, 100.087 77.696, 91.030 82.279 M 69.165 133.598 C 64.057 140.550, 60.089 146.790, 60.348 147.465 C 61.115 149.463, 92.912 172.173, 94.001 171.499 C 94.589 171.136, 95 165.175, 95 157.022 C 95 145.778, 94.677 142.600, 93.291 140.185 C 91.831 137.641, 91.783 136.967, 92.956 135.553 C 93.750 134.597, 95.419 134.026, 96.914 134.199 C 98.930 134.434, 99.572 135.133, 99.828 137.372 C 100.009 138.951, 99.671 140.729, 99.078 141.322 C 98.404 141.996, 98 147.982, 98 157.307 C 98 170.470, 98.184 172.143, 99.577 171.609 C 100.444 171.276, 108.321 165.801, 117.080 159.442 C 130.493 149.705, 132.851 147.613, 132.024 146.190 C 131.484 145.261, 127.298 139.325, 122.721 133 L 114.400 121.500 96.426 121.228 L 78.452 120.957 69.165 133.598" stroke="none" fill="#042c64" fill-rule="evenodd"></path><path d="" stroke="none" fill="#082c64" fill-rule="evenodd"></path></g></svg>